<svg xmlns="http://www.w3.org/2000/svg" xmlns:xlink="http://www.w3.org/1999/xlink" version="1.1" width="108.26041412353516" height="70.99055480957031" viewBox="0.39928627014160156 0.7171000242233276 108.26041412353516 70.99055480957031">
  <!-- Exported by Scratch - http://scratch.mit.edu/ -->
  <g id="ID0.8804858233779669">
    <g id="Layer_3">
      <path id="ID0.8451694184914231" fill="#F9A41F" d="M 15.9919 49.573 C 13.7627 48.0297 12.048 45.972 11.0191 43.4856 C 8.5328 37.1411 10.419 29.7676 6.3036 29.8534 C 2.2739 29.9391 -3.0418 40.9135 5.3605 49.2301 C 7.8469 51.6307 10.8477 53.5169 14.02 54.8887 C 14.7059 55.2317 20.7075 57.5466 24.0512 55.6604 C 27.395 53.7741 26.3662 52.4023 25.9375 51.7164 C 25.5088 50.9448 18.6498 51.545 15.9919 49.573 Z " stroke-width="0.8573749643266204"/>
      <path id="ID0.6858935537748039" fill="#FFFFFF" d="M 6.6465 29.9391 C 4.7603 29.5962 1.7595 33.1114 1.1593 36.4552 C 0.7306 38.9416 0.9879 41.5137 1.7595 43.9143 C 2.6169 45.3719 3.0456 42.2853 5.4462 41.6852 C 7.161 41.3422 8.8757 41.5137 10.5047 42.1996 C 10.5047 42.1996 9.6473 37.3125 9.2187 34.6547 C 8.8757 31.9111 8.6185 30.3678 6.6465 29.9391 Z " stroke-width="0.8573749643266204"/>
      <path id="ID0.17426032526418567" fill="none" stroke="#231F20" stroke-linecap="round" stroke-linejoin="round" d="M 15.9919 49.573 C 13.7627 48.0297 12.048 45.972 11.0191 43.4856 C 8.5328 37.1411 10.419 29.7676 6.3036 29.8534 C 2.2739 29.9391 -3.0418 40.9135 5.3605 49.2301 C 7.8469 51.6307 10.8477 53.5169 14.02 54.8887 C 14.7059 55.2317 20.7075 57.5466 24.0512 55.6604 C 27.395 53.7741 26.3662 52.4023 25.9375 51.7164 C 25.5088 50.9448 18.6498 51.545 15.9919 49.573 Z " stroke-width="0.8573749643266204"/>
    </g>
    <g id="ID0.8015054534189403">
      <path id="ID0.35254472540691495" fill="#F9A41F" d="M 76.7798 65.4344 C 76.7798 65.4344 91.2694 72.7221 100.2719 70.9216 C 109.1886 69.1212 107.8168 58.5754 101.3865 60.2045 C 97.3568 61.2333 86.2967 62.3479 80.3808 60.4617 C 74.3792 58.5754 73.0931 63.7197 76.7798 65.4344 Z " stroke-width="0.8573749643266204"/>
      <path id="ID0.18118325853720307" fill="none" stroke="#231F20" stroke-linecap="round" stroke-linejoin="round" d="M 76.7798 65.4344 C 76.7798 65.4344 91.2694 72.7221 100.2719 70.9216 C 109.1886 69.1212 107.8168 58.5754 101.3865 60.2045 C 97.3568 61.2333 86.2967 62.3479 80.3808 60.4617 C 74.3792 58.5754 73.0931 63.7197 76.7798 65.4344 Z " stroke-width="0.8573749643266204"/>
    </g>
    <path id="ID0.9482145281508565" fill="#231F20" stroke="#231F20" stroke-linecap="round" stroke-linejoin="round" opacity="0.1" d="M 34.8542 50.3921 C 33.5681 48.6774 32.1106 47.2199 30.3958 46.0195 C 29.6242 42.933 29.5384 39.7607 30.2243 36.6741 C 32.8822 39.5035 35.1971 42.59 37.1691 46.0195 C 38.8838 48.5917 37.3406 53.4787 34.8542 50.3921 Z " stroke-width="0.8573749643266204"/>
    <g id="ID0.05117864953354001">
      <path id="ID0.1841080985032022" fill="#F9A41F" d="M 37.0833 45.8863 C 37.0833 45.8863 31.3389 35.4263 25.423 33.1971 C 16.8493 30.0249 14.7916 37.3983 18.1354 40.742 C 22.2508 44.9432 27.6522 41.085 34.8542 50.2589 C 37.3406 53.4312 38.8838 48.6299 37.0833 45.8863 Z " stroke-width="0.8573749643266204"/>
      <path id="ID0.6833870257250965" fill="none" stroke="#231F20" stroke-linecap="round" stroke-linejoin="round" d="M 37.0833 45.8863 C 37.0833 45.8863 31.3389 35.4263 25.423 33.1971 C 16.8493 30.0249 14.7916 37.3983 18.1354 40.742 C 22.2508 44.9432 27.6522 41.085 34.8542 50.2589 C 37.3406 53.4312 38.8838 48.6299 37.0833 45.8863 Z " stroke-width="0.8573749643266204"/>
    </g>
    <g id="ID0.48522777296602726">
      <path id="ID0.7030626530759037" fill="#F9A41F" d="M 52.0017 63.291 C 52.0017 63.291 42.2276 67.5779 25.3373 68.0066 C 8.8757 68.4353 0.7306 65.0058 1.8452 60.2045 C 3.1313 54.3743 8.447 56.8607 11.9623 57.5466 C 15.2203 57.9753 18.564 57.5466 21.6506 56.1748 L 21.5649 51.7164 C 21.6506 51.6307 53.0305 47.0866 52.0017 63.291 Z " stroke-width="0.8573749643266204"/>
      <path id="ID0.6132942135445774" fill="#FFFFFF" d="M 42.3133 55.7461 C 42.3133 55.7461 30.3101 55.3174 26.7091 59.0041 C 24.3085 61.4048 26.5376 63.7197 29.2812 64.1484 C 35.6258 65.1772 46.6002 62.0907 47.2861 60.4617 L 42.3133 55.7461 Z " stroke-width="0.8573749643266204"/>
      <path id="ID0.21069183386862278" fill="none" stroke="#231F20" stroke-linecap="round" stroke-linejoin="round" d="M 52.0017 63.291 C 52.0017 63.291 42.2276 67.5779 25.3373 68.0066 C 8.8757 68.4353 0.7306 65.8631 1.8452 60.2045 C 2.9598 54.2886 8.447 56.9464 11.9623 57.5466 C 15.0488 57.9753 18.1354 58.2325 21.2219 58.2325 L 21.5649 51.7164 C 21.6506 51.6307 53.0305 47.0866 52.0017 63.291 Z " stroke-width="0.8573749643266204"/>
    </g>
    <g id="ID0.685240566264838">
      <g id="ID0.7746110348962247">
        <path id="ID0.328220805618912" fill="#F9A41F" d="M 65.4625 13.1346 C 62.2902 12.7059 59.0321 12.9631 55.9456 13.7347 L 43.7709 1.2171 L 41.7989 21.4511 C 41.7989 21.4511 35.2829 24.5377 32.3678 36.198 C 29.1098 49.1443 39.7412 62.2622 55.9456 66.9777 C 77.4657 73.2366 96.4137 67.0635 97.5283 52.3166 C 98.1284 44.6002 92.5555 42.7997 92.5555 42.7997 C 92.5555 42.7997 94.013 37.9984 91.8696 31.3109 C 90.5835 27.2813 88.1829 23.766 85.0106 21.0224 L 84.6677 8.3333 L 74.2934 15.3637 C 71.3783 14.3349 68.4633 13.5633 65.4625 13.1346 Z " stroke-width="0.8573749643266204"/>
        <path id="ID0.6610133568756282" fill="#FFFFFF" d="M 73.2646 44.1715 C 65.291 44.0858 47.7148 32.1683 41.8846 44.1715 C 35.5401 57.2036 45.7428 64.1484 55.9456 66.9777 C 85.868 75.38 97.614 60.6331 97.5283 52.3166 C 97.5283 46.0578 95.8135 44.0858 92.5555 42.7997 C 85.0106 39.7989 81.1524 44.1715 73.2646 44.1715 Z " stroke-width="0.8573749643266204"/>
        <g id="ID0.5234180972911417">
          <path id="ID0.6854334818199277" fill="none" stroke="#231F20" stroke-linecap="round" stroke-linejoin="round" d="M 65.4625 13.1346 C 62.2902 12.7059 59.0321 12.9631 55.9456 13.7347 L 43.7709 1.2171 L 41.7989 21.4511 C 41.7989 21.4511 35.2829 24.5377 32.3678 36.198 C 29.1098 49.1443 39.7412 62.2622 55.9456 66.9777 C 77.4657 73.2366 96.4137 67.0635 97.5283 52.3166 C 98.1284 44.6002 92.5555 42.7997 92.5555 42.7997 C 92.5555 42.7997 94.013 37.9984 91.8696 31.3109 C 90.5835 27.2813 88.1829 23.766 85.0106 21.0224 L 84.6677 8.3333 L 74.2934 15.3637 C 71.3783 14.3349 68.4633 13.5633 65.4625 13.1346 Z " stroke-width="0.8573749643266204"/>
        </g>
      </g>
      <path id="ID0.18328718142583966" fill="none" stroke="#231F20" stroke-linecap="round" stroke-linejoin="round" d="M 55.9456 13.7347 L 57.0602 14.9351 " stroke-width="0.8573749643266204"/>
    </g>
    <path id="ID0.9732344932854176" fill="none" stroke="#231F20" stroke-linecap="round" stroke-linejoin="round" d="M 21.9078 38.9891 C 23.9655 39.675 26.0232 40.1894 28.0809 40.6181 C 30.0529 40.961 33.9111 41.304 33.9111 41.304 " stroke-width="0.8573749643266204"/>
    <path id="ID0.982788821682334" fill="none" stroke="#231F20" stroke-linecap="round" stroke-linejoin="round" d="M 35.0256 37.2743 C 33.3109 35.4738 31.4247 33.7591 29.4527 32.3015 C 27.5665 30.844 25.5088 29.5579 23.2796 28.4433 " stroke-width="0.8573749643266204"/>
    <g id="ID0.26337171206250787">
      <path id="ID0.56489945249632" fill="#FFFFFF" stroke="#231F20" stroke-linecap="round" stroke-linejoin="round" d="M 89.6404 30.8822 C 91.6981 36.198 90.5835 41.5994 87.3255 42.8855 C 83.9818 44.1715 79.6949 40.8278 77.6372 35.5121 C 75.5795 30.1963 76.6941 24.7949 79.9521 23.5088 C 83.2101 22.137 87.5827 25.5665 89.6404 30.8822 Z " stroke-width="0.8573749643266204"/>
      <path id="ID0.775096942204982" fill="#231F20" d="M 87.9257 33.7973 C 87.9257 34.8262 86.9826 35.6835 85.9537 35.6835 C 84.9249 35.6835 84.0675 34.7404 84.0675 33.7116 C 84.0675 32.6827 84.8391 31.9111 85.868 31.8253 C 86.9826 31.8253 87.9257 32.7685 87.9257 33.7973 C 87.9257 33.7973 87.9257 33.7973 87.9257 33.7973 " stroke-width="0.8573749643266204"/>
    </g>
    <g id="ID0.7706028069369495">
      <path id="ID0.9455000613816082" fill="#FFFFFF" stroke="#231F20" stroke-linecap="round" stroke-linejoin="round" d="M 63.8334 28.8245 C 65.8911 34.1403 64.3479 39.7132 60.4039 41.1707 C 56.46 42.6283 51.573 39.5417 49.601 34.226 C 47.5433 28.8245 49.0866 23.3373 53.0305 21.8798 C 56.9744 20.4223 61.8615 23.5088 63.8334 28.8245 Z " stroke-width="0.8573749643266204"/>
      <path id="ID0.35412361985072494" fill="#231F20" d="M 61.8615 31.9968 C 61.5185 33.0257 60.4897 33.6258 59.4608 33.2829 C 58.432 32.9399 57.8318 31.9111 58.1748 30.8822 C 58.432 29.9391 59.4608 29.339 60.4039 29.5962 C 61.5185 29.7676 62.2044 30.8822 61.8615 31.9968 C 61.8615 31.9968 61.8615 31.9968 61.8615 31.9968 " stroke-width="0.8573749643266204"/>
    </g>
    <g id="ID0.7050393782556057">
      <path id="ID0.7292461628094316" fill="#231F20" stroke="#231F20" stroke-linecap="round" stroke-linejoin="round" d="M 72.9216 41.5994 C 74.7221 41.7709 78.0659 41.4279 77.8944 43.5714 C 77.7229 44.5145 75.2365 47.6868 73.1788 47.3438 C 71.1211 47.0009 67.7774 43.9143 68.2918 42.2853 C 68.8062 40.6563 71.2926 41.4279 72.9216 41.5994 Z " stroke-width="0.8573749643266204"/>
      <path id="ID0.4421373223885894" fill="none" stroke="#231F20" stroke-linecap="round" stroke-linejoin="round" d="M 79.3519 53.2597 C 79.0947 55.4032 64.948 54.2886 65.4625 51.545 " stroke-width="0.8573749643266204"/>
    </g>
    <path id="ID0.5864751464687288" fill="#F9A41F" d="M 28.1666 54.1646 C 27.4807 57.2511 23.3653 59.4803 19.0785 59.1374 C 14.7916 58.7944 11.9623 56.0508 12.7339 52.9643 C 13.5055 49.8777 17.5352 47.6485 21.8221 47.9058 C 26.1089 48.2487 28.9383 51.078 28.1666 54.1646 Z " stroke-width="0.8573749643266204"/>
    <path id="ID0.6067810989916325" fill="none" stroke="#231F20" stroke-linecap="round" stroke-linejoin="round" d="M 28.1666 54.1646 C 27.4807 57.2511 23.3653 59.4803 19.0785 59.1374 C 14.7916 58.7944 11.9623 56.0508 12.7339 52.9643 C 13.5055 49.8777 17.5352 47.6485 21.8221 47.9058 C 26.1089 48.2487 28.9383 51.078 28.1666 54.1646 Z " stroke-width="0.8573749643266204"/>
    <path id="ID0.3905865359120071" fill="none" stroke="#231F20" stroke-linecap="round" stroke-linejoin="round" d="M 95.2991 48.7631 C 97.7855 48.9346 100.2719 48.8489 102.844 48.6774 C 104.7302 48.4202 106.5307 47.9058 108.1597 47.0484 " stroke-width="0.8573749643266204"/>
    <path id="ID0.570885996799916" fill="none" stroke="#231F20" stroke-linecap="round" stroke-linejoin="round" d="M 94.2703 54.2503 C 96.0707 55.1934 97.957 55.8793 100.0147 56.3938 C 101.6437 56.7367 103.2727 56.9939 104.9017 57.0797 " stroke-width="0.8573749643266204"/>
  </g>
</svg>